<?xml version="1.0" encoding="UTF-8" standalone="no"?>
<!-- Created with Inkscape (http://www.inkscape.org/) -->

<svg
   version="1.1"
   id="svg1"
   width="694.82336"
   height="126.00647"
   viewBox="0 0 694.82336 126.00647"
   sodipodi:docname="Untitled-2.svg"
   inkscape:version="1.3.2 (091e20e, 2023-11-25, custom)"
   xmlns:inkscape="http://www.inkscape.org/namespaces/inkscape"
   xmlns:sodipodi="http://sodipodi.sourceforge.net/DTD/sodipodi-0.dtd"
   xmlns="http://www.w3.org/2000/svg"
   xmlns:svg="http://www.w3.org/2000/svg">
  <defs
     id="defs1" />
  <sodipodi:namedview
     id="namedview1"
     pagecolor="#e3e3e3"
     bordercolor="#f2eaea"
     borderopacity="1"
     inkscape:showpageshadow="0"
     inkscape:pageopacity="0"
     inkscape:pagecheckerboard="0"
     inkscape:deskcolor="#505050"
     showgrid="false"
     inkscape:zoom="0.80355097"
     inkscape:cx="311.74127"
     inkscape:cy="125.06985"
     inkscape:window-width="1920"
     inkscape:window-height="1009"
     inkscape:window-x="-8"
     inkscape:window-y="-8"
     inkscape:window-maximized="1"
     inkscape:current-layer="g1" />
  <g
     inkscape:groupmode="layer"
     inkscape:label="Image"
     id="g1"
     transform="translate(-472.78515,-298.63712)">
    <path
       style="fill:#4d4d4d;stroke-width:0.542914"
       d="m 512.66175,423.8444 c -5.27131,-1.6713 -5.74967,-3.15333 -5.74967,-17.81306 V 394.2891 h 2.06829 2.0683 v 10.17574 c 0,5.97717 0.23649,10.92355 0.57314,11.98821 1.02569,3.2437 4.977,4.42503 8.54957,2.55609 3.12132,-1.63291 3.52294,-3.21093 3.71622,-14.60179 l 0.17166,-10.11825 h 2.02642 2.02643 v 14.82112 14.82115 h -1.80976 c -1.7752,0 -1.80976,-0.045 -1.80976,-2.34652 v -2.34648 l -2.0317,2.02352 c -2.94118,2.9294 -6.08879,3.75893 -9.79917,2.58251 z m 30.64333,-0.43389 c -1.17098,-0.58624 -2.50891,-1.66378 -2.97318,-2.39452 l -0.84413,-1.32861 v 2.12201 c 0,2.0956 -0.0257,2.12198 -2.0683,2.12198 h -2.06829 V 403.40978 382.8882 h 2.06829 2.0683 v 7.41059 c 0,4.07581 0.10435,7.41056 0.23191,7.41056 0.12752,0 0.84812,-0.6296 1.60129,-1.39911 2.89131,-2.95408 7.2967,-3.23539 11.2982,-0.72143 4.57388,2.87353 6.75588,11.82395 4.74324,19.4564 -1.12661,4.27242 -4.23572,7.83957 -7.66187,8.79069 -3.17318,0.88086 -3.88021,0.8338 -6.39545,-0.42539 z m 7.56947,-5.62779 c 3.2348,-3.56617 3.98212,-10.07474 1.75174,-15.2564 -1.83146,-4.25488 -6.89573,-5.64745 -10.01497,-2.75392 -2.63271,2.44222 -3.3447,4.50331 -3.32417,9.62283 0.0287,7.15193 2.39664,10.53903 7.37123,10.54371 1.92539,0.002 2.54709,-0.31597 4.21617,-2.15622 z m 43.68166,6.18565 c -4.37239,-1.17347 -7.52599,-4.80608 -8.4945,-9.78467 -0.75722,-3.89257 -0.6965,-6.51224 0.24314,-10.48939 1.55875,-6.59747 5.12464,-9.61973 11.3538,-9.62291 3.86379,-0.002 5.85972,0.80141 7.8607,3.16403 1.06278,1.25484 2.99573,5.55239 2.64035,5.87029 -0.0878,0.0782 -1.03492,0.29178 -2.10481,0.47369 -1.82906,0.31105 -1.98878,0.21619 -2.67391,-1.5916 -1.38641,-3.65805 -6.29692,-4.88629 -9.65319,-2.41444 -2.58057,1.9005 -3.56497,4.49896 -3.56592,9.41265 -0.002,6.9154 2.09188,10.33584 6.61866,10.81539 3.45225,0.36585 5.58693,-0.91862 6.87895,-4.13866 0.96925,-2.41561 1.05359,-2.47779 2.92786,-2.15902 1.06143,0.18066 1.98049,0.36926 2.04235,0.41904 0.0619,0.0499 -0.15349,1.04609 -0.47852,2.2137 -1.6752,6.01743 -7.61211,9.43763 -13.59497,7.8319 z m 71.87337,0 c -4.37239,-1.17347 -7.52599,-4.80608 -8.4945,-9.78467 -0.75723,-3.89257 -0.6965,-6.51224 0.24314,-10.48939 1.55874,-6.59747 5.12464,-9.61973 11.35379,-9.62291 3.8638,-0.002 5.85973,0.80141 7.86071,3.16403 1.06277,1.25484 2.99573,5.55239 2.64035,5.87029 -0.0878,0.0782 -1.03492,0.29178 -2.10481,0.47369 -1.82907,0.31105 -1.98878,0.21619 -2.67392,-1.5916 -1.3864,-3.65805 -6.29692,-4.88629 -9.65319,-2.41444 -2.58056,1.9005 -3.56496,4.49896 -3.56592,9.41265 -10e-4,6.9154 2.09189,10.33584 6.61867,10.81539 3.45225,0.36585 5.58693,-0.91862 6.87895,-4.13866 0.96924,-2.41561 1.05358,-2.47779 2.92786,-2.15902 1.06143,0.18066 1.98048,0.36926 2.04234,0.41904 0.0619,0.0499 -0.15348,1.04609 -0.47851,2.2137 -1.6752,6.01743 -7.61212,9.43763 -13.59497,7.8319 z m 25.85373,0 c -4.3724,-1.17347 -7.526,-4.80608 -8.4945,-9.78467 -0.75723,-3.89257 -0.69651,-6.51224 0.24314,-10.48939 1.55874,-6.59747 5.12463,-9.61973 11.35379,-9.62291 3.86379,-0.002 5.85973,0.80141 7.86071,3.16403 1.06277,1.25484 2.99573,5.55239 2.64034,5.87029 -0.0878,0.0782 -1.03492,0.29178 -2.10481,0.47369 -1.82906,0.31105 -1.98878,0.21619 -2.67391,-1.5916 -1.38641,-3.65805 -6.29692,-4.88629 -9.65319,-2.41444 -2.58056,1.9005 -3.56497,4.49896 -3.56592,9.41265 -0.002,6.9154 2.09188,10.33584 6.61866,10.81539 3.45225,0.36585 5.58693,-0.91862 6.87895,-4.13866 0.96925,-2.41561 1.05359,-2.47779 2.92787,-2.15902 1.06142,0.18066 1.98048,0.36926 2.04234,0.41904 0.0619,0.0499 -0.15345,1.04609 -0.47852,2.2137 -1.6752,6.01743 -7.61211,9.43763 -13.59497,7.8319 z m 25.85373,0.0302 c -4.05155,-1.16803 -7.35622,-4.51786 -8.4586,-8.57424 -0.32463,-1.19448 -0.59021,-4.03612 -0.59021,-6.31479 0,-2.27868 0.26559,-5.12036 0.59021,-6.3148 2.39471,-8.81159 13.28522,-11.89225 19.77557,-5.59397 3.10007,3.00832 4.20715,6.27621 4.131,12.19378 -0.0884,6.8708 -2.04192,10.91565 -6.49017,13.4383 -2.17936,1.23594 -6.68182,1.82188 -8.9578,1.16572 z m 6.97568,-5.11582 c 5.6031,-3.31279 5.59781,-16.17248 -0.008,-19.58147 -2.84776,-1.73174 -6.75538,-1.17921 -9.05757,1.28073 -3.72004,3.97497 -3.86934,12.40865 -0.29579,16.7099 0.74338,0.89477 1.81697,1.84044 2.38576,2.10153 1.80244,0.82734 5.1239,0.58416 6.97568,-0.51069 z m 20.23259,4.96097 c -5.27131,-1.67134 -5.74968,-3.15333 -5.74968,-17.81306 v -11.74224 h 2.0683 2.0683 v 10.17581 c 0,5.97717 0.23649,10.92355 0.57314,11.98821 1.02568,3.2437 4.977,4.42503 8.54956,2.55609 3.12133,-1.6329 3.52295,-3.21093 3.71622,-14.60179 l 0.17171,-10.11824 h 2.02642 2.02642 v 14.82111 14.82115 h -1.80976 c -1.7752,0 -1.80976,-0.045 -1.80976,-2.34652 v -2.34648 l -2.0317,2.02352 c -2.94117,2.9294 -6.08879,3.75893 -9.79916,2.58252 z m 55.97574,0.26419 c -0.60453,-0.13077 -1.65161,-0.886 -2.32683,-1.6783 -1.19017,-1.39653 -1.23333,-1.77902 -1.4118,-12.51061 l -0.18407,-11.07009 h -1.49639 c -1.40107,0 -1.49635,-0.14513 -1.49635,-2.28015 0,-2.1535 0.0862,-2.28015 1.5512,-2.28015 h 1.55123 v -3.56697 -3.56693 l 2.32682,-1.54941 2.32687,-1.54946 v 5.11638 5.11639 h 2.32683 2.32683 v 2.28015 2.28015 h -2.32683 -2.32683 v 9.86177 c 0,10.77063 0.1183,11.22989 2.89074,11.22989 1.49484,0 1.6693,0.18406 1.85729,1.95968 0.16933,1.59749 0.0113,2.01747 -0.84827,2.27237 -1.1424,0.33826 -2.99381,0.31294 -4.7404,-0.0646 z m 15.13667,-0.39337 c -2.97124,-0.92024 -5.29879,-3.29171 -6.26544,-6.38355 -0.38445,-1.22971 -0.66164,-2.2642 -0.61598,-2.29897 0.0457,-0.034 1.07187,-0.23018 2.28052,-0.43427 1.75612,-0.29669 2.19761,-0.19994 2.19761,0.48174 0,0.46904 0.66735,1.67622 1.48301,2.68263 1.32582,1.63582 1.83288,1.85159 4.78296,2.03509 4.1526,0.25814 6.66088,-1.15393 6.66088,-3.75024 0,-2.31428 -1.20366,-3.22511 -6.20488,-4.69527 -6.02695,-1.77165 -7.40871,-2.47725 -9.04226,-4.61745 -1.239,-1.62338 -1.38229,-2.21355 -1.18242,-4.87064 0.39711,-5.27928 3.53967,-7.80499 9.7076,-7.802 5.20014,0.002 7.9268,1.49896 9.39409,5.15581 0.56859,1.41705 0.95618,2.6471 0.86132,2.73346 -0.0949,0.0865 -1.03975,0.30426 -2.09976,0.48473 -1.71367,0.2914 -2.00027,0.15987 -2.58538,-1.18522 -0.88834,-2.04246 -2.71038,-2.95302 -5.92925,-2.96308 -3.40993,-0.0113 -5.67969,1.7932 -5.1552,4.09705 0.37039,1.62724 1.23254,2.08739 7.32393,3.90946 5.7442,1.71822 7.69992,2.92853 8.77754,5.43206 1.08691,2.5251 0.81437,5.99376 -0.64154,8.16532 -2.44403,3.64532 -8.70229,5.38583 -13.74735,3.8233 z m 41.60776,-0.0695 c -8.55126,-2.93986 -9.93906,-15.17246 -2.35011,-20.71411 1.31195,-0.95804 2.65485,-1.84475 2.98424,-1.9705 0.37266,-0.14211 -0.0151,-1.17717 -1.0221,-2.73947 -3.23732,-5.0148 -3.23701,-9.59747 10e-4,-12.8764 4.28338,-4.33777 11.66325,-3.51213 14.0479,1.57164 2.01959,4.30564 0.54497,9.33022 -3.67842,12.53367 l -2.27441,1.72513 3.13674,4.39483 c 1.72524,2.41716 3.32285,4.46982 3.55026,4.56147 0.22753,0.0919 0.72552,-0.99855 1.10691,-2.42267 0.72726,-2.7154 0.88086,-2.81182 3.54354,-2.22475 1.47314,0.32467 1.61783,0.52717 1.32484,1.85269 -0.18104,0.81838 -0.90282,2.88204 -1.60426,4.58593 l -1.27529,3.09789 2.80762,2.88756 2.80762,2.88752 -1.4623,1.92404 -1.46233,1.92408 -2.75222,-2.86272 -2.75217,-2.86273 -2.03494,1.94559 c -2.13377,2.04003 -6.09827,3.66357 -8.78819,3.5989 -0.87266,-0.0227 -2.60686,-0.38887 -3.85376,-0.81759 z m 9.05991,-5.5573 c 1.383,-1.01892 2.51455,-2.17266 2.51455,-2.56381 0,-1.04568 -7.64209,-11.54479 -8.40321,-11.54479 -0.35679,0 -1.81168,1.23545 -3.23271,2.74545 -2.35441,2.50182 -2.58364,2.97483 -2.58364,5.3311 0,6.95962 6.14672,10.12724 11.70501,6.03205 z m -1.5532,-21.65121 c 2.99357,-2.26137 3.64656,-5.7995 1.50588,-8.15947 -2.62262,-2.89127 -7.52108,-0.91612 -7.52108,3.03261 0,1.46911 3.0937,6.39901 4.0156,6.39901 0.17348,0 1.07335,-0.57245 1.9996,-1.27215 z m 45.69226,27.18455 c -5.3,-1.63453 -8.93692,-5.71192 -10.63287,-11.92052 -2.62617,-9.61402 -0.76105,-19.41728 4.70309,-24.71977 3.12216,-3.02971 6.68682,-4.36354 11.64049,-4.35564 3.29035,0.004 4.37942,0.27175 6.958,1.70192 3.20587,1.77819 5.37944,4.29766 6.6726,7.73443 l 0.7708,2.04839 -2.33681,0.58953 c -2.23736,0.56443 -2.35782,0.52868 -2.82992,-0.84027 -1.55346,-4.50455 -4.92805,-6.98131 -9.51212,-6.98131 -7.73613,0 -12.15527,5.87663 -12.15527,16.16417 0,8.25694 2.3088,13.49775 6.97607,15.83524 2.46055,1.23231 6.86781,1.37234 9.19914,0.29215 2.32596,-1.0775 4.85174,-4.10679 5.86636,-7.03555 0.61893,-1.78666 1.09073,-2.40359 1.68914,-2.20879 0.45672,0.14853 1.47731,0.44054 2.2681,0.64856 1.59617,0.41995 1.57296,1.02614 -0.18671,4.87268 -3.31053,7.23659 -11.19054,10.61091 -19.09013,8.17463 z m 33.86838,0.37758 c -4.05154,-1.16803 -7.35624,-4.51786 -8.45862,-8.57424 -0.32466,-1.19444 -0.59021,-4.03612 -0.59021,-6.3148 0,-2.27867 0.2657,-5.12031 0.59021,-6.31479 2.39471,-8.81159 13.28523,-11.89221 19.77555,-5.59397 3.10008,3.00832 4.20718,6.27621 4.13102,12.19378 -0.0884,6.87084 -2.04193,10.91565 -6.49017,13.4383 -2.17935,1.23598 -6.68178,1.82188 -8.95778,1.16572 z m 6.97569,-5.11582 c 5.60307,-3.31279 5.59778,-16.17249 -0.008,-19.58151 -2.8478,-1.73174 -6.75538,-1.17917 -9.0576,1.28077 -3.72004,3.97497 -3.86933,12.40861 -0.29556,16.7099 0.74332,0.89476 1.81693,1.84044 2.38571,2.10153 1.8025,0.82734 5.12391,0.58416 6.97569,-0.51069 z m 48.42778,4.8316 c -2.97125,-0.92024 -5.2988,-3.29171 -6.26549,-6.38359 -0.38442,-1.22967 -0.66157,-2.2642 -0.61599,-2.29893 0.0454,-0.034 1.07191,-0.23018 2.28057,-0.43427 1.75612,-0.29669 2.19757,-0.19956 2.19757,0.48174 0,0.469 0.66739,1.67622 1.48301,2.68259 1.32583,1.63586 1.83293,1.85163 4.78293,2.03513 4.1526,0.25814 6.6609,-1.15393 6.6609,-3.7502 0,-2.31432 -1.2036,-3.22511 -6.2049,-4.69531 -6.02689,-1.77165 -7.40868,-2.47725 -9.04219,-4.61745 -1.23901,-1.62334 -1.38233,-2.21355 -1.18243,-4.87064 0.39712,-5.27928 3.53964,-7.80495 9.70762,-7.802 5.2001,0.002 7.9268,1.49896 9.394,5.1558 0.5686,1.4171 0.9562,2.64715 0.8614,2.73347 -0.095,0.0865 -1.0398,0.30425 -2.0998,0.48473 -1.7137,0.2914 -2.0002,0.16025 -2.5853,-1.18523 -0.8885,-2.04245 -2.7105,-2.95298 -5.9293,-2.96307 -3.4099,-0.0113 -5.67972,1.7932 -5.1552,4.09708 0.3704,1.6272 1.2325,2.08736 7.3239,3.90943 5.7442,1.71821 7.6999,2.92853 8.7776,5.43205 1.0869,2.52511 0.8143,5.99377 -0.6416,8.16533 -2.444,3.64532 -8.7023,5.38583 -13.7473,3.82334 z m 26.6147,0.12926 c -5.2713,-1.67131 -5.7497,-3.15334 -5.7497,-17.81307 v -11.74224 h 2.0683 2.0683 v 10.176 c 0,5.97718 0.2366,10.92356 0.5732,11.98821 1.0257,3.24371 4.9769,4.42504 8.5495,2.5561 3.1213,-1.63291 3.523,-3.21094 3.7162,-14.60179 l 0.172,-10.11825 h 2.0264 2.0264 v 14.82111 14.82116 h -1.8098 c -1.7752,0 -1.8097,-0.045 -1.8097,-2.34652 v -2.34648 l -2.0317,2.02352 c -2.9412,2.9294 -6.0888,3.75893 -9.7992,2.58251 z m 38.9123,0.26418 c -0.6046,-0.13077 -1.6517,-0.88599 -2.3268,-1.67829 -1.1902,-1.39654 -1.2334,-1.77899 -1.4119,-12.51062 l -0.1841,-11.06978 h -1.4963 c -1.4011,0 -1.4964,-0.14514 -1.4964,-2.28019 0,-2.1535 0.086,-2.28015 1.5512,-2.28015 h 1.5512 v -3.56693 -3.56693 l 2.3269,-1.54942 2.3268,-1.54945 v 5.11634 5.11639 h 2.3268 2.3269 v 2.28015 2.28019 h -2.3269 -2.3268 v 9.86173 c 0,10.77063 0.1183,11.22988 2.8908,11.22988 1.4948,0 1.6692,0.18407 1.8573,1.95973 0.1693,1.59749 0.011,2.01743 -0.8484,2.27236 -1.1423,0.33827 -2.9937,0.31295 -4.7403,-0.0646 z m 13.1162,-0.38706 c -1.0692,-0.43967 -2.3061,-1.13076 -2.7487,-1.53577 -2.2729,-2.07953 -2.928,-6.57029 -1.4572,-9.98748 1.2489,-2.90143 3.6862,-4.24191 9.4081,-5.1741 7.7543,-1.26334 8.0921,-1.40364 8.2748,-3.43661 0.1089,-1.21126 -0.2309,-2.24972 -1.1011,-3.36491 -1.1154,-1.42961 -1.6624,-1.63525 -4.8111,-1.80839 -4.103,-0.22564 -6.6421,1.03952 -7.225,3.60015 -0.268,1.17725 -0.5695,1.42194 -1.4359,1.16557 -0.6031,-0.17839 -1.6232,-0.32806 -2.2669,-0.33222 -1.1495,-0.008 -1.156,-0.0457 -0.3681,-2.12459 1.8197,-4.80124 4.8813,-6.63488 11.1043,-6.6506 5.0483,-0.0113 7.6811,0.97224 9.1378,3.41884 0.7981,1.34019 0.9948,3.27716 1.264,12.44606 0.1754,5.97241 0.5768,11.5643 0.892,12.42652 0.5732,1.56733 0.5729,1.5676 -1.6854,1.5676 -2.3435,0 -2.8864,-0.55793 -2.8864,-2.96636 0,-1.09958 -0.063,-1.11266 -1.1634,-0.24 -4.1752,3.3129 -9.2835,4.49646 -12.9318,2.99618 z m 9.0703,-4.56189 c 2.7352,-1.28481 4.1072,-3.37326 4.3965,-6.69233 l 0.257,-2.95079 -1.4949,0.42365 c -0.8221,0.23282 -3.3564,0.76308 -5.6315,1.178 -4.9966,0.91124 -5.8274,1.24237 -6.4778,2.58217 -1.6211,3.33933 0.5894,6.24091 4.7544,6.24091 1.3927,0 3.281,-0.35187 4.1961,-0.78161 z m 49.6868,4.94895 c -0.6045,-0.13077 -1.6516,-0.88599 -2.3268,-1.67829 -1.1901,-1.39654 -1.2333,-1.77899 -1.4118,-12.51062 l -0.1841,-11.07005 h -1.4964 c -1.401,0 -1.4963,-0.14513 -1.4963,-2.28019 0,-2.15349 0.086,-2.28015 1.5512,-2.28015 h 1.5512 v -3.56693 -3.56692 l 2.3268,-1.54942 2.3269,-1.54946 v 5.11635 5.11638 h 2.3268 2.3269 v 2.28015 2.28019 h -2.3269 -2.3268 v 9.86174 c 0,10.77063 0.1183,11.22988 2.8907,11.22988 1.4948,0 1.6693,0.18406 1.8573,1.95972 0.1694,1.5975 0.011,2.01744 -0.8483,2.27237 -1.1424,0.33827 -2.9937,0.31294 -4.7403,-0.0646 z m 14.6196,-0.39337 c -2.9712,-0.92024 -5.2988,-3.2917 -6.2655,-6.38358 -0.3844,-1.22967 -0.6615,-2.2642 -0.6159,-2.29894 0.046,-0.034 1.0719,-0.23017 2.2805,-0.43427 1.7561,-0.29669 2.1976,-0.19956 2.1976,0.48174 0,0.46904 0.6674,1.67622 1.483,2.68264 1.3259,1.63581 1.8329,1.85159 4.783,2.03508 4.1526,0.25814 6.6608,-1.15393 6.6608,-3.7502 0,-2.31431 -1.2036,-3.2251 -6.2048,-4.69527 -6.0269,-1.77169 -7.4087,-2.47729 -9.0423,-4.61748 -1.239,-1.62335 -1.3823,-2.21352 -1.1824,-4.87064 0.3971,-5.27928 3.5397,-7.80495 9.7076,-7.802 5.2002,0.002 7.9268,1.49896 9.3941,5.1558 0.5686,1.4171 0.9562,2.64714 0.8613,2.73347 -0.095,0.0865 -1.0398,0.30463 -2.0998,0.48472 -1.7136,0.2914 -2.0002,0.16025 -2.5853,-1.18522 -0.8884,-2.04246 -2.7104,-2.95298 -5.9293,-2.96307 -3.4099,-0.0113 -5.6797,1.79319 -5.1552,4.09708 0.3704,1.62724 1.2325,2.08739 7.3239,3.90943 5.7442,1.71821 7.7,2.92853 8.7776,5.43205 1.0869,2.5251 0.8143,5.9938 -0.6415,8.16533 -2.4441,3.64535 -8.7024,5.38586 -13.7474,3.82333 z M 472.78515,403.34908 v -20.58206 l 9.95369,0.23509 c 12.53593,0.29594 14.79227,1.15109 16.99586,6.44141 1.42409,3.41896 1.25777,7.53339 -0.45024,11.13785 -2.28262,4.81705 -6.00036,6.24851 -16.22839,6.24851 h -5.61725 v 8.55065 8.55065 h -2.32683 -2.32684 z m 20.51753,-2.56596 c 3.28558,-2.70822 3.48955,-8.07409 0.43492,-11.44165 l -1.71727,-1.89316 h -7.29076 -7.29075 v 7.45364 7.45369 l 7.20321,-0.18558 c 6.36531,-0.16403 7.37274,-0.32542 8.66065,-1.38686 z m 71.00467,2.6264 v -20.52155 h 2.0683 2.0683 v 20.52155 20.52159 h -2.0683 -2.0683 z m 11.37565,5.70043 v -14.82111 h 2.06829 2.0683 v 14.82111 14.82116 h -2.0683 -2.06829 z m 46.67163,11.54344 c 0.62362,-1.8028 3.82155,-10.97337 7.10653,-20.3791 l 5.97267,-17.10131 h 2.54533 2.54532 l 7.58172,20.37906 7.58172,20.37907 h -2.69412 -2.69412 l -2.1801,-6.2705 -2.1801,-6.27047 h -7.8531 -7.8531 l -1.99735,6.27047 -1.99735,6.2705 h -2.50891 -2.5089 z m 19.79736,-20.23658 c -1.20937,-3.52717 -2.60158,-7.76171 -3.0938,-9.41015 -0.99351,-3.32723 -1.55489,-3.43691 -2.0709,-0.4046 -0.18965,1.11443 -1.37891,5.02919 -2.64283,8.69949 -1.26391,3.67022 -2.29854,6.86555 -2.29918,7.10071 -5.1e-4,0.23509 2.76785,0.42754 6.15221,0.42754 h 6.15335 z m 126.39982,8.69314 v -14.82111 h 1.80976 c 1.72293,0 1.80976,0.0952 1.80976,1.99139 v 1.99136 l 2.30123,-1.93652 c 3.58854,-3.01976 8.39189,-3.36037 12.12203,-0.85957 2.90725,1.94914 3.338,3.98868 3.57174,16.91221 l 0.20879,11.5434 h -2.37993 -2.37992 v -10.5741 c 0,-11.52295 -0.31676,-13.13473 -2.82946,-14.39683 -3.23414,-1.62455 -7.60538,-0.10809 -9.08752,3.15277 -0.50753,1.11659 -0.77399,4.55664 -0.90627,11.69991 l -0.18735,10.11825 h -2.02642 -2.02643 z m 198.03959,0 v -14.82111 h 1.80979 c 1.72294,0 1.80975,0.0952 1.80975,1.99139 v 1.99136 l 2.30124,-1.93652 c 3.58855,-3.01976 8.39184,-3.36037 12.12201,-0.85957 2.90728,1.94914 3.338,3.98868 3.57176,16.91221 l 0.20863,11.5434 h -2.37989 -2.37993 v -10.5741 c 0,-11.52295 -0.31672,-13.13473 -2.82947,-14.39683 -3.2341,-1.62455 -7.60535,-0.10809 -9.08749,3.15277 -0.50756,1.11659 -0.77401,4.55664 -0.9063,11.69991 l -0.18746,10.11825 h -2.0264 -2.02643 z m 83.249,-5.70043 v -20.52155 h 2.0683 2.0683 v 20.52155 20.52159 h -2.0683 -2.0683 z m 54.8099,5.70043 v -14.82111 h 1.8098 c 1.7229,0 1.8098,0.0952 1.8098,1.99139 v 1.99136 l 2.3012,-1.93652 c 3.5886,-3.01976 8.3918,-3.36037 12.122,-0.85957 2.9073,1.94914 3.338,3.98868 3.5718,16.91221 l 0.2086,11.5434 h -2.3798 -2.3799 v -10.5741 c 0,-11.52295 -0.3167,-13.13473 -2.8295,-14.39683 -3.2341,-1.62455 -7.6053,-0.10809 -9.0875,3.15277 -0.5075,1.11659 -0.774,4.55664 -0.9063,11.69991 l -0.1874,10.11825 h -2.0265 -2.0263 z M 575.683,385.45317 v -2.5652 h 2.06829 2.0683 v 2.5652 2.56517 h -2.0683 -2.06829 z"
       id="path1-1" />
    <path
       style="fill:#11628b;fill-opacity:1;stroke-width:0.524047"
       d="m 632.28743,333.21318 v -34.57606 l 17.61371,0.25134 c 18.8676,0.26948 20.3994,0.45407 26.23122,3.16297 3.77651,1.75423 9.36523,7.40897 11.46142,11.5968 5.58728,11.16246 5.4797,27.73898 -0.25399,39.1293 -2.36121,4.69073 -7.45092,9.78187 -11.56056,11.56384 -6.31713,2.73914 -8.13849,2.96062 -26.41591,3.21249 l -17.07589,0.23508 z m 36.79723,24.79696 c 8.63817,-3.22273 12.74932,-11.26761 12.80078,-25.04913 0.0393,-10.51033 -1.78678,-15.91491 -7.08619,-20.97346 -4.57837,-4.37027 -5.90189,-4.68401 -20.86443,-4.94548 l -12.50439,-0.21846 v 26.3935 26.39343 l 12.23548,-0.20636 c 11.24428,-0.18974 12.49335,-0.30274 15.41875,-1.39401 z m 56.24618,-24.79382 v -34.46721 h 26.08443 26.08442 v 4.08499 4.08502 h -21.24401 -21.24402 v 10.46786 10.46778 h 19.89946 19.89945 v 4.08503 4.08498 h -19.89945 -19.89946 v 11.74439 11.7444 h 22.05075 22.05075 v 4.08495 4.08502 H 752.222 725.33084 Z m 86.58956,0 v -34.46721 h 4.57149 4.57149 v 30.38222 30.38223 h 18.01708 18.01708 v 4.08495 4.08502 H 834.50897 811.9204 Z m 87.66516,4.08499 v -30.38219 h -11.83212 -11.83211 v -4.08502 -4.08499 h 28.50463 28.50459 v 4.08499 4.08502 h -12.10099 -12.10102 v 30.38219 30.38222 h -4.57153 -4.57145 z m 48.0034,29.74394 c 0.13871,-0.35112 6.39666,-15.86083 13.90651,-34.46616 l 13.65422,-33.82787 5.11975,-10e-4 5.11978,-0.001 14.64758,34.08424 c 8.0562,18.7463 14.6465,34.25658 14.6452,34.46721 0,0.21052 -2.362,0.37871 -5.2461,0.37342 l -5.2437,-0.0113 -4.25947,-10.71368 -4.25953,-10.71364 h -15.12956 -15.1296 l -4.00626,10.7167 -4.00626,10.7167 -5.03237,0.008 c -3.80405,0.008 -4.97083,-0.14929 -4.78019,-0.63186 z m 44.02337,-30.8928 c -2.87909,-6.97652 -9.72616,-24.68342 -10.31694,-26.68018 -0.3738,-1.2638 -0.84197,-2.47899 -1.04013,-2.7004 -0.19804,-0.22148 -0.9146,1.61685 -1.5922,4.08499 -0.67755,2.46818 -3.25795,9.63504 -5.73407,15.92633 -2.47612,6.29132 -4.50206,11.51886 -4.50206,11.61675 0,0.0979 5.44188,0.17764 12.09317,0.17764 h 12.09316 z"
       id="path1-3" />
  </g>
</svg>
