<?xml version="1.0" encoding="UTF-8" standalone="no"?>
<!-- Created with Inkscape (http://www.inkscape.org/) -->

<svg
   width="183.83868mm"
   height="137.67509mm"
   viewBox="0 0 183.83868 137.6751"
   version="1.1"
   id="svg1"
   sodipodi:docname="Delta 0.2.svg"
   inkscape:version="1.3.2 (091e20e, 2023-11-25, custom)"
   xmlns:inkscape="http://www.inkscape.org/namespaces/inkscape"
   xmlns:sodipodi="http://sodipodi.sourceforge.net/DTD/sodipodi-0.dtd"
   xmlns="http://www.w3.org/2000/svg"
   xmlns:svg="http://www.w3.org/2000/svg">
  <sodipodi:namedview
     id="namedview1"
     pagecolor="#ffffff"
     bordercolor="#eeeeee"
     borderopacity="1"
     inkscape:showpageshadow="0"
     inkscape:pageopacity="0"
     inkscape:pagecheckerboard="0"
     inkscape:deskcolor="#505050"
     inkscape:document-units="mm"
     inkscape:zoom="0.51213161"
     inkscape:cx="567.237"
     inkscape:cy="512.56356"
     inkscape:window-width="1920"
     inkscape:window-height="1009"
     inkscape:window-x="-8"
     inkscape:window-y="-8"
     inkscape:window-maximized="1"
     inkscape:current-layer="layer1" />
  <defs
     id="defs1" />
  <g
     inkscape:label="Layer 1"
     inkscape:groupmode="layer"
     id="layer1"
     transform="translate(-15.918177,-61.493308)">
    <path
       id="path1"
       style="fill:#ffffff;stroke:none;stroke-width:0.156644px;stroke-linecap:butt;stroke-linejoin:miter;stroke-opacity:1"
       d="m 94.224131,61.493308 -45.145127,73.305472 23.123189,0.0656 33.653617,-54.635427 z" />
    <path
       style="fill:#ffffff;stroke:none;stroke-width:0.156644px;stroke-linecap:butt;stroke-linejoin:miter;stroke-opacity:1"
       d="m 117.60579,61.539825 -11.60828,18.665823 33.69235,54.740662 h 23.40532 z"
       id="path2" />
    <path
       style="fill:#ffffff;stroke:none;stroke-width:0.156644px;stroke-linecap:butt;stroke-linejoin:miter;stroke-opacity:1"
       d="m 72.052178,135.11142 -11.638444,18.9662 91.002376,-0.0233 -11.63188,-18.92184 z"
       id="path3" />
    <path
       style="fill:#ffffff;stroke-width:0.143646"
       d="m 26.468859,198.95695 c -1.394701,-0.4422 -1.521267,-0.83432 -1.521267,-4.71304 v -3.1068 h 0.547237 0.547237 v 2.69233 c 0,1.58146 0.06257,2.89019 0.151643,3.17188 0.27138,0.85823 1.316831,1.17079 2.262073,0.6763 0.825849,-0.43204 0.932112,-0.84956 0.98325,-3.86339 l 0.04542,-2.67712 h 0.536157 0.536158 v 3.92142 3.92143 h -0.478832 c -0.469688,0 -0.478833,-0.0119 -0.478833,-0.62085 v -0.62084 l -0.537553,0.53539 c -0.778186,0.77507 -1.610992,0.99455 -2.592696,0.68329 z m 8.107714,-0.1148 c -0.309821,-0.15511 -0.663815,-0.44021 -0.786653,-0.63355 l -0.223342,-0.35153 v 0.56145 c 0,0.55446 -0.0068,0.56144 -0.547237,0.56144 h -0.547237 v -5.42967 -5.42967 h 0.547237 0.547237 v 1.96072 c 0,1.07839 0.02761,1.96071 0.06136,1.96071 0.03374,0 0.224398,-0.16658 0.423674,-0.37018 0.764993,-0.7816 1.930584,-0.85603 2.989316,-0.19088 1.210171,0.76029 1.787493,3.12842 1.254982,5.14784 -0.298082,1.13041 -1.120702,2.07422 -2.027205,2.32587 -0.83957,0.23306 -1.026638,0.22061 -1.692129,-0.11255 z m 2.002758,-1.48902 c 0.855874,-0.94355 1.053601,-2.66561 0.463481,-4.03659 -0.484574,-1.12577 -1.824496,-1.49422 -2.649794,-0.72864 -0.696571,0.64617 -0.884953,1.1915 -0.879522,2.54604 0.0076,1.89228 0.634113,2.78845 1.950306,2.78969 0.509425,4.5e-4 0.673916,-0.0836 1.115529,-0.5705 z m 11.557439,1.63662 c -1.156863,-0.31048 -1.991252,-1.27161 -2.247503,-2.58886 -0.20035,-1.02991 -0.184283,-1.72303 0.06433,-2.77532 0.412418,-1.74558 1.355895,-2.54522 3.004025,-2.54606 1.022296,-4.6e-4 1.550386,0.21204 2.079812,0.83715 0.281192,0.33201 0.79262,1.46907 0.698591,1.55318 -0.02322,0.0207 -0.273822,0.0772 -0.556897,0.12533 -0.48394,0.0823 -0.526198,0.0572 -0.707472,-0.42111 -0.36682,-0.96786 -1.666061,-1.29283 -2.554074,-0.63882 -0.682774,0.50284 -0.943231,1.19035 -0.943483,2.49043 -4.1e-4,1.8297 0.553478,2.73469 1.751188,2.86157 0.913408,0.0968 1.478208,-0.24305 1.820055,-1.09502 0.256447,-0.63913 0.278762,-0.65558 0.774664,-0.57124 0.280836,0.0478 0.524003,0.0977 0.540371,0.11087 0.01637,0.0132 -0.04061,0.27678 -0.126609,0.58571 -0.443229,1.59211 -2.014038,2.49704 -3.597002,2.07219 z m 19.016495,0 c -1.156863,-0.31048 -1.991253,-1.27161 -2.247503,-2.58886 -0.200351,-1.02991 -0.184284,-1.72303 0.06433,-2.77532 0.412418,-1.74558 1.355894,-2.54522 3.004025,-2.54606 1.022295,-4.6e-4 1.550386,0.21204 2.079812,0.83715 0.281191,0.33201 0.79262,1.46907 0.698591,1.55318 -0.02322,0.0207 -0.273822,0.0772 -0.556897,0.12533 -0.48394,0.0823 -0.526198,0.0572 -0.707473,-0.42111 -0.36682,-0.96786 -1.666061,-1.29283 -2.554074,-0.63882 -0.682773,0.50284 -0.94323,1.19035 -0.943482,2.49043 -4.1e-4,1.8297 0.553477,2.73469 1.751188,2.86157 0.913407,0.0968 1.478208,-0.24305 1.820055,-1.09502 0.256446,-0.63913 0.278761,-0.65558 0.774664,-0.57124 0.280836,0.0478 0.524003,0.0977 0.54037,0.11087 0.01637,0.0132 -0.04061,0.27678 -0.126608,0.58571 -0.44323,1.59211 -2.014039,2.49704 -3.597002,2.07219 z m 6.840466,0 c -1.156864,-0.31048 -1.991253,-1.27161 -2.247503,-2.58886 -0.200351,-1.02991 -0.184284,-1.72303 0.06433,-2.77532 0.412417,-1.74558 1.355894,-2.54522 3.004025,-2.54606 1.022295,-4.6e-4 1.550386,0.21204 2.079812,0.83715 0.281191,0.33201 0.79262,1.46907 0.698591,1.55318 -0.02322,0.0207 -0.273823,0.0772 -0.556897,0.12533 -0.48394,0.0823 -0.526198,0.0572 -0.707473,-0.42111 -0.36682,-0.96786 -1.666061,-1.29283 -2.554074,-0.63882 -0.682773,0.50284 -0.94323,1.19035 -0.943482,2.49043 -4.1e-4,1.8297 0.553477,2.73469 1.751188,2.86157 0.913407,0.0968 1.478208,-0.24305 1.820055,-1.09502 0.256446,-0.63913 0.278761,-0.65558 0.774664,-0.57124 0.280836,0.0478 0.524002,0.0977 0.54037,0.11087 0.01637,0.0132 -0.0406,0.27678 -0.126608,0.58571 -0.44323,1.59211 -2.014039,2.49704 -3.597002,2.07219 z m 6.840466,0.008 c -1.071972,-0.30904 -1.946332,-1.19535 -2.238005,-2.2686 -0.08589,-0.31604 -0.156158,-1.06789 -0.156158,-1.67079 0,-0.6029 0.07027,-1.35476 0.156158,-1.67079 0.633601,-2.3314 3.515049,-3.14649 5.232286,-1.48007 0.820228,0.79595 1.113144,1.66058 1.092995,3.22627 -0.02339,1.8179 -0.540257,2.8881 -1.71719,3.55555 -0.576624,0.32701 -1.767898,0.48204 -2.370086,0.30843 z m 1.84565,-1.35356 c 1.482487,-0.87651 1.481086,-4.27897 -0.0021,-5.18093 -0.753469,-0.45819 -1.787359,-0.312 -2.396481,0.33886 -0.984262,1.05171 -1.023763,3.28312 -0.07826,4.42116 0.196686,0.23674 0.480739,0.48695 0.63123,0.55603 0.476897,0.2189 1.3557,0.15456 1.84565,-0.13512 z m 5.353204,1.31259 c -1.394701,-0.44221 -1.521268,-0.83432 -1.521268,-4.71304 v -3.1068 h 0.547237 0.547238 v 2.69235 c 0,1.58146 0.06257,2.89019 0.151642,3.17188 0.27138,0.85823 1.316832,1.17079 2.262073,0.6763 0.82585,-0.43204 0.932113,-0.84956 0.98325,-3.86339 l 0.04543,-2.67712 h 0.536157 0.536159 v 3.92142 3.92143 h -0.478833 c -0.469688,0 -0.478833,-0.0119 -0.478833,-0.62085 v -0.62084 l -0.537554,0.53539 c -0.778184,0.77507 -1.610991,0.99455 -2.592695,0.68329 z m 14.810249,0.0699 c -0.15995,-0.0346 -0.43699,-0.23442 -0.61564,-0.44405 -0.3149,-0.3695 -0.32632,-0.4707 -0.37354,-3.3101 l -0.0487,-2.92896 h -0.39592 c -0.3707,0 -0.39591,-0.0384 -0.39591,-0.60329 0,-0.56978 0.0228,-0.60329 0.41042,-0.60329 h 0.41043 v -0.94376 -0.94375 l 0.61564,-0.40995 0.61565,-0.40996 v 1.35371 1.35371 h 0.61564 0.61564 v 0.60329 0.60329 h -0.61564 -0.61564 v 2.60926 c 0,2.84973 0.0313,2.97124 0.76484,2.97124 0.39551,0 0.44167,0.0487 0.49141,0.5185 0.0448,0.42267 0.003,0.53379 -0.22444,0.60123 -0.30226,0.0895 -0.79211,0.0828 -1.25423,-0.0171 z m 4.00491,-0.10408 c -0.78614,-0.24348 -1.40197,-0.87093 -1.65773,-1.68898 -0.10172,-0.32536 -0.17506,-0.59907 -0.16298,-0.60827 0.0121,-0.009 0.2836,-0.0609 0.60339,-0.1149 0.46464,-0.0785 0.58145,-0.0529 0.58145,0.12746 0,0.1241 0.17657,0.4435 0.39238,0.70978 0.35079,0.43281 0.48495,0.4899 1.26549,0.53845 1.09871,0.0683 1.76236,-0.30531 1.76236,-0.99225 0,-0.61232 -0.31847,-0.85331 -1.64171,-1.24229 -1.59463,-0.46875 -1.96022,-0.65544 -2.39243,-1.2217 -0.32782,-0.42952 -0.36573,-0.58567 -0.31285,-1.28869 0.10507,-1.39681 0.93654,-2.06507 2.56847,-2.06428 1.37587,5.7e-4 2.0973,0.3966 2.48552,1.36414 0.15044,0.37493 0.25299,0.70038 0.22789,0.72323 -0.0251,0.0229 -0.2751,0.0805 -0.55556,0.12825 -0.45341,0.0771 -0.52924,0.0423 -0.68405,-0.31359 -0.23504,-0.5404 -0.71712,-0.78132 -1.56878,-0.78398 -0.90221,-0.003 -1.50275,0.47445 -1.36398,1.08401 0.098,0.43054 0.32611,0.55229 1.93779,1.03438 1.51982,0.45461 2.03727,0.77484 2.32239,1.43723 0.28758,0.6681 0.21547,1.58585 -0.16974,2.16041 -0.64665,0.96449 -2.30248,1.425 -3.63732,1.01158 z m 11.00872,-0.0184 c -2.26252,-0.77784 -2.62971,-4.01438 -0.6218,-5.48061 0.34712,-0.25348 0.70243,-0.48809 0.78958,-0.52136 0.0986,-0.0376 -0.004,-0.31146 -0.27043,-0.72482 -0.85654,-1.32683 -0.85646,-2.53933 2.7e-4,-3.40688 1.13331,-1.1477 3.0859,-0.92925 3.71684,0.41583 0.53435,1.1392 0.14419,2.46862 -0.97325,3.3162 l -0.60177,0.45644 0.82993,1.1628 c 0.45647,0.63954 0.87917,1.18264 0.93934,1.20689 0.0602,0.0243 0.19196,-0.2642 0.29287,-0.641 0.19242,-0.71845 0.23306,-0.74396 0.93756,-0.58863 0.38977,0.0859 0.42805,0.13948 0.35053,0.49019 -0.0479,0.21653 -0.23887,0.76254 -0.42446,1.21336 l -0.33742,0.81965 0.74285,0.764 0.74285,0.76399 -0.3869,0.50907 -0.38691,0.50908 -0.72819,-0.75743 -0.72818,-0.75743 -0.53841,0.51477 c -0.56456,0.53976 -1.6135,0.96932 -2.32521,0.95221 -0.23089,-0.006 -0.68973,-0.10289 -1.01964,-0.21632 z m 2.3971,-1.47037 c 0.36592,-0.26959 0.66531,-0.57485 0.66531,-0.67834 0,-0.27667 -2.02197,-3.05456 -2.22335,-3.05456 -0.0944,0 -0.47934,0.32688 -0.85532,0.7264 -0.62294,0.66194 -0.68359,0.78709 -0.68359,1.41052 0,1.8414 1.62632,2.6795 3.09695,1.59598 z m -0.41095,-5.72855 c 0.79205,-0.59832 0.96482,-1.53445 0.39843,-2.15886 -0.6939,-0.76498 -1.98995,-0.24239 -1.98995,0.80238 0,0.3887 0.81854,1.69307 1.06246,1.69307 0.0459,0 0.28399,-0.15146 0.52906,-0.33659 z m 12.08941,7.19258 c -1.40229,-0.43247 -2.36456,-1.51128 -2.81328,-3.15397 -0.69484,-2.54371 -0.20136,-5.13749 1.24436,-6.54044 0.82607,-0.80161 1.76922,-1.15452 3.07988,-1.15243 0.87057,0.001 1.15872,0.0719 1.84097,0.4503 0.84822,0.47048 1.42331,1.13709 1.76546,2.0464 l 0.20394,0.54197 -0.61828,0.15598 c -0.59197,0.14934 -0.62384,0.13988 -0.74875,-0.22232 -0.41102,-1.19183 -1.30388,-1.84714 -2.51675,-1.84714 -2.04685,0 -3.21608,1.55486 -3.21608,4.27677 0,2.18465 0.61087,3.57128 1.84575,4.18974 0.65102,0.32605 1.81711,0.3631 2.43394,0.0773 0.61541,-0.28509 1.28369,-1.08659 1.55214,-1.86149 0.16376,-0.47272 0.28859,-0.63595 0.44692,-0.58441 0.12084,0.0393 0.39087,0.11656 0.6001,0.1716 0.42232,0.11111 0.41618,0.2715 -0.0494,1.28923 -0.87591,1.91468 -2.96083,2.80747 -5.05093,2.16287 z m 8.96101,0.0999 c -1.07197,-0.30904 -1.94634,-1.19535 -2.23801,-2.2686 -0.0859,-0.31603 -0.15616,-1.06789 -0.15616,-1.67079 0,-0.6029 0.0703,-1.35475 0.15616,-1.67079 0.6336,-2.3314 3.51505,-3.14648 5.23228,-1.48007 0.82023,0.79595 1.11315,1.66058 1.093,3.22627 -0.0234,1.81791 -0.54026,2.8881 -1.71719,3.55555 -0.57662,0.32702 -1.76789,0.48204 -2.37008,0.30843 z m 1.84565,-1.35356 c 1.48248,-0.87651 1.48108,-4.27897 -0.002,-5.18094 -0.75348,-0.45819 -1.78736,-0.31199 -2.39649,0.33887 -0.98426,1.05171 -1.02376,3.28311 -0.0782,4.42116 0.19667,0.23674 0.48073,0.48695 0.63122,0.55603 0.47691,0.2189 1.3557,0.15456 1.84565,-0.13512 z m 12.81317,1.27836 c -0.78613,-0.24348 -1.40196,-0.87093 -1.65773,-1.68899 -0.10171,-0.32535 -0.17504,-0.59907 -0.16298,-0.60826 0.012,-0.009 0.28361,-0.0609 0.6034,-0.1149 0.46464,-0.0785 0.58144,-0.0528 0.58144,0.12746 0,0.12409 0.17658,0.4435 0.39238,0.70977 0.3508,0.43282 0.48495,0.48991 1.26549,0.53846 1.09871,0.0683 1.76236,-0.30531 1.76236,-0.99224 0,-0.61233 -0.31847,-0.85331 -1.64171,-1.2423 -1.59462,-0.46875 -1.96022,-0.65544 -2.39242,-1.2217 -0.32782,-0.42951 -0.36574,-0.58567 -0.31285,-1.28869 0.10507,-1.39681 0.93653,-2.06506 2.56846,-2.06428 1.37588,5.7e-4 2.09731,0.3966 2.48552,1.36414 0.15044,0.37494 0.25299,0.70039 0.22791,0.72323 -0.0251,0.0229 -0.27511,0.0805 -0.55558,0.12825 -0.45341,0.0771 -0.52923,0.0424 -0.68404,-0.31359 -0.23506,-0.5404 -0.71713,-0.78131 -1.56878,-0.78398 -0.90221,-0.003 -1.50276,0.47445 -1.36398,1.08402 0.098,0.43053 0.3261,0.55228 1.93779,1.03437 1.51981,0.45461 2.03726,0.77484 2.32239,1.43723 0.28757,0.6681 0.21546,1.58585 -0.16974,2.16041 -0.64666,0.96449 -2.30249,1.425 -3.63733,1.01159 z m 7.04182,0.0342 c -1.39471,-0.4422 -1.52127,-0.83432 -1.52127,-4.71304 v -3.1068 h 0.54724 0.54723 v 2.6924 c 0,1.58146 0.0626,2.89019 0.15165,3.17188 0.27138,0.85823 1.31682,1.17079 2.26207,0.6763 0.82585,-0.43204 0.93211,-0.84956 0.98325,-3.86339 l 0.0455,-2.67712 h 0.53615 0.53615 v 3.92142 3.92143 h -0.47883 c -0.46969,0 -0.47883,-0.0119 -0.47883,-0.62085 v -0.62084 l -0.53755,0.53539 c -0.77819,0.77507 -1.611,0.99455 -2.5927,0.68329 z m 10.29554,0.0699 c -0.15996,-0.0346 -0.437,-0.23442 -0.61564,-0.44405 -0.3149,-0.3695 -0.32632,-0.47069 -0.37355,-3.3101 l -0.0487,-2.92888 h -0.39592 c -0.3707,0 -0.39592,-0.0384 -0.39592,-0.6033 0,-0.56978 0.0228,-0.60329 0.41043,-0.60329 h 0.41043 v -0.94375 -0.94375 l 0.61564,-0.40995 0.61564,-0.40996 v 1.3537 1.35371 h 0.61564 0.61565 v 0.60329 0.6033 h -0.61565 -0.61564 v 2.60925 c 0,2.84973 0.0313,2.97124 0.76485,2.97124 0.3955,0 0.44166,0.0487 0.49141,0.51851 0.0448,0.42267 0.003,0.53378 -0.22445,0.60123 -0.30225,0.0895 -0.7921,0.0828 -1.25421,-0.0171 z m 3.47033,-0.10241 c -0.28288,-0.11633 -0.61016,-0.29918 -0.72726,-0.40634 -0.60136,-0.55021 -0.77471,-1.73839 -0.38555,-2.64252 0.33044,-0.76767 0.97532,-1.12234 2.48922,-1.36898 2.05166,-0.33426 2.14104,-0.37138 2.18939,-0.90927 0.0288,-0.32048 -0.0611,-0.59524 -0.29134,-0.8903 -0.29511,-0.37825 -0.43985,-0.43266 -1.27293,-0.47847 -1.08559,-0.0597 -1.75739,0.27504 -1.91163,0.95254 -0.0709,0.31148 -0.15066,0.37622 -0.3799,0.30839 -0.15957,-0.0472 -0.42948,-0.0868 -0.59979,-0.0879 -0.30413,-0.002 -0.30587,-0.0121 -0.0974,-0.56213 0.48146,-1.27033 1.29151,-1.75548 2.93802,-1.75964 1.3357,-0.003 2.03228,0.25724 2.41772,0.90457 0.21114,0.35459 0.26319,0.86708 0.33442,3.29302 0.0464,1.5802 0.1526,3.05972 0.23602,3.28785 0.15165,0.41469 0.15157,0.41476 -0.44594,0.41476 -0.62005,0 -0.7637,-0.14762 -0.7637,-0.78485 0,-0.29093 -0.0168,-0.29439 -0.30782,-0.0635 -1.10468,0.87654 -2.45626,1.18969 -3.42153,0.79274 z m 2.39985,-1.207 c 0.7237,-0.33994 1.0867,-0.89251 1.16324,-1.77068 l 0.068,-0.78073 -0.39553,0.11209 c -0.21752,0.0616 -0.88803,0.2019 -1.48999,0.31168 -1.32203,0.2411 -1.54183,0.32871 -1.71392,0.6832 -0.42891,0.88353 0.15594,1.65124 1.25793,1.65124 0.3685,0 0.86811,-0.0931 1.11023,-0.2068 z m 13.14631,1.30941 c -0.15995,-0.0346 -0.43699,-0.23442 -0.61564,-0.44405 -0.31489,-0.3695 -0.32632,-0.47069 -0.37354,-3.3101 l -0.0487,-2.92895 h -0.39592 c -0.3707,0 -0.39592,-0.0384 -0.39592,-0.6033 0,-0.56978 0.0228,-0.60329 0.41043,-0.60329 h 0.41043 v -0.94375 -0.94375 l 0.61564,-0.40995 0.61564,-0.40996 v 1.3537 1.35371 h 0.61565 0.61564 v 0.60329 0.6033 h -0.61564 -0.61565 v 2.60925 c 0,2.84973 0.0313,2.97124 0.76485,2.97124 0.3955,0 0.44166,0.0487 0.49141,0.51851 0.0448,0.42267 0.003,0.53378 -0.22446,0.60123 -0.30225,0.0895 -0.79209,0.0828 -1.25421,-0.0171 z m 3.86809,-0.10408 c -0.78613,-0.24348 -1.40196,-0.87093 -1.65773,-1.68899 -0.10172,-0.32535 -0.17504,-0.59907 -0.16298,-0.60826 0.0121,-0.009 0.28361,-0.0609 0.6034,-0.1149 0.46463,-0.0785 0.58144,-0.0528 0.58144,0.12746 0,0.1241 0.17658,0.4435 0.39238,0.70978 0.3508,0.43281 0.48495,0.4899 1.26549,0.53845 1.09871,0.0683 1.76236,-0.30531 1.76236,-0.99224 0,-0.61233 -0.31847,-0.85331 -1.64171,-1.24229 -1.59462,-0.46876 -1.96022,-0.65545 -2.39243,-1.22171 -0.32782,-0.42951 -0.36573,-0.58566 -0.31284,-1.28869 0.10507,-1.39681 0.93653,-2.06506 2.56846,-2.06428 1.37588,5.7e-4 2.0973,0.3966 2.48552,1.36414 0.15044,0.37494 0.25299,0.70039 0.2279,0.72323 -0.0251,0.0229 -0.27511,0.0806 -0.55557,0.12825 -0.45341,0.0771 -0.52923,0.0424 -0.68404,-0.31359 -0.23506,-0.5404 -0.71713,-0.78131 -1.56878,-0.78398 -0.90222,-0.003 -1.50276,0.47445 -1.36398,1.08402 0.098,0.43054 0.3261,0.55229 1.93778,1.03437 1.51982,0.45461 2.03727,0.77484 2.3224,1.43723 0.28757,0.6681 0.21546,1.58586 -0.16974,2.16041 -0.64666,0.9645 -2.30249,1.42501 -3.63733,1.01159 z M 15.918177,193.53423 v -5.44567 l 2.633579,0.0622 c 3.3168,0.0783 3.91379,0.30456 4.496823,1.70429 0.37679,0.9046 0.332784,1.99321 -0.119126,2.94689 -0.603945,1.27451 -1.587595,1.65325 -4.293763,1.65325 h -1.486229 v 2.26236 2.26236 h -0.615642 -0.615642 z m 5.428595,-0.67891 c 0.86931,-0.71655 0.923277,-2.13627 0.115073,-3.02727 l -0.454361,-0.5009 h -1.929012 -1.929011 v 1.97211 1.97212 l 1.905848,-0.0491 c 1.684155,-0.0434 1.950705,-0.0861 2.291463,-0.36694 z m 18.786653,0.6949 v -5.42966 h 0.547238 0.547237 v 5.42966 5.42967 h -0.547237 -0.547238 z m 3.009806,1.50824 v -3.92142 h 0.547237 0.547237 v 3.92142 3.92143 h -0.547237 -0.547237 z m 12.348536,3.0542 c 0.165,-0.47699 1.01112,-2.90337 1.88027,-5.39197 l 1.58027,-4.52472 h 0.67345 0.673449 l 2.005997,5.39196 2.005998,5.39196 h -0.71282 -0.712819 l -0.576819,-1.65907 -0.576817,-1.65906 h -2.077799 -2.0778 l -0.528465,1.65906 -0.528467,1.65907 h -0.663814 -0.663814 z m 5.238052,-5.35426 c -0.319979,-0.93323 -0.688334,-2.05362 -0.818568,-2.48977 -0.262867,-0.88033 -0.411397,-0.90935 -0.547925,-0.10705 -0.05018,0.29486 -0.364837,1.33064 -0.699249,2.30174 -0.334409,0.97108 -0.608155,1.81651 -0.608325,1.87873 -1.36e-4,0.0622 0.732328,0.11312 1.627771,0.11312 h 1.628076 z m 33.443286,2.30006 v -3.92142 h 0.478832 c 0.455858,0 0.478833,0.0252 0.478833,0.52689 v 0.52688 l 0.608867,-0.51237 c 0.949468,-0.79898 2.220354,-0.8891 3.207288,-0.22743 0.769209,0.51571 0.883178,1.05534 0.945023,4.47469 l 0.05524,3.05419 H 99.3175 98.687812 v -2.79773 c 0,-3.04878 -0.08381,-3.47523 -0.748628,-3.80916 -0.855699,-0.42983 -2.012256,-0.0286 -2.404405,0.83417 -0.134284,0.29543 -0.204787,1.20561 -0.239784,3.0956 l -0.04957,2.67712 h -0.536158 -0.536158 z m 52.397975,0 v -3.92142 h 0.47884 c 0.45586,0 0.47883,0.0252 0.47883,0.52689 v 0.52688 l 0.60887,-0.51237 c 0.94947,-0.79898 2.22034,-0.8891 3.20728,-0.22743 0.76922,0.51571 0.88318,1.05534 0.94503,4.47469 l 0.0552,3.05419 h -0.62968 -0.62969 v -2.79773 c 0,-3.04878 -0.0838,-3.47523 -0.74863,-3.80916 -0.85569,-0.42983 -2.01225,-0.0286 -2.4044,0.83417 -0.13429,0.29543 -0.20479,1.20561 -0.23979,3.0956 l -0.0496,2.67712 h -0.53615 -0.53616 z m 22.0263,-1.50824 v -5.42966 h 0.54724 0.54724 v 5.42966 5.42967 h -0.54724 -0.54724 z m 14.50179,1.50824 v -3.92142 h 0.47883 c 0.45586,0 0.47884,0.0252 0.47884,0.52689 v 0.52688 l 0.60886,-0.51237 c 0.94948,-0.79898 2.22035,-0.8891 3.20729,-0.22743 0.76921,0.51571 0.88318,1.05534 0.94503,4.47469 l 0.0552,3.05419 h -0.62965 -0.62969 v -2.79773 c 0,-3.04878 -0.0838,-3.47523 -0.74863,-3.80916 -0.85569,-0.42983 -2.01225,-0.0286 -2.4044,0.83417 -0.13429,0.29543 -0.20479,1.20561 -0.23979,3.0956 l -0.0496,2.67712 h -0.53616 -0.53615 z M 43.143231,188.79927 v -0.67871 h 0.547237 0.547237 v 0.67871 0.6787 h -0.547237 -0.547237 z"
       id="path1-1" />
    <path
       style="fill:#ffffff;fill-opacity:1;stroke-width:0.138654"
       d="m 58.119822,171.80244 v -9.14825 l 4.660294,0.0665 c 4.992052,0.0713 5.39734,0.12014 6.940343,0.83687 0.9992,0.46414 2.477885,1.96029 3.0325,3.06832 1.478303,2.9534 1.449837,7.33927 -0.0672,10.35296 -0.624738,1.24109 -1.971392,2.58812 -3.058732,3.0596 -1.671409,0.72473 -2.15331,0.78333 -6.989211,0.84997 l -4.517995,0.0622 z m 9.735932,6.56086 c 2.285516,-0.85268 3.37326,-2.98122 3.386874,-6.62758 0.01039,-2.78086 -0.472752,-4.21082 -1.874889,-5.54923 -1.211359,-1.1563 -1.561542,-1.23931 -5.52038,-1.30849 l -3.308453,-0.0578 v 6.98328 6.98326 l 3.237304,-0.0546 c 2.97505,-0.0502 3.305533,-0.0801 4.079544,-0.36883 z m 14.881804,-6.56003 v -9.11945 h 6.901503 6.901504 v 1.08082 1.08083 h -5.620812 -5.620812 v 2.76962 2.7696 h 5.265064 5.265065 v 1.08083 1.08082 h -5.265065 -5.265064 v 3.10737 3.10737 h 5.83426 5.834261 v 1.08081 1.08083 H 89.85251 82.737558 Z m 22.910152,0 v -9.11945 h 1.20954 1.20954 v 8.03863 8.03863 h 4.76702 4.76702 v 1.08081 1.08083 h -5.97656 -5.97656 z m 23.19474,1.08082 v -8.03862 h -3.13058 -3.13058 v -1.08083 -1.08082 h 7.54185 7.54184 v 1.08082 1.08083 h -3.20172 -3.20173 v 8.03862 8.03863 h -1.20955 -1.20953 z m 12.7009,7.86975 c 0.0367,-0.0929 1.69245,-4.19651 3.67943,-9.11917 l 3.61268,-8.95029 1.3546,-2.7e-4 1.35461,-2.7e-4 3.8755,9.01812 c 2.13153,4.95996 3.87523,9.06372 3.87489,9.11945 0,0.0557 -0.62495,0.1002 -1.38803,0.0988 l -1.38742,-0.003 -1.12697,-2.83466 -1.127,-2.83465 h -4.00303 -4.00304 l -1.05999,2.83546 -1.05999,2.83546 -1.33148,0.002 c -1.00649,0.002 -1.3152,-0.0395 -1.26476,-0.16718 z m 11.64785,-8.17372 c -0.76176,-1.84587 -2.57338,-6.53082 -2.72969,-7.05913 -0.0989,-0.33438 -0.22277,-0.6559 -0.2752,-0.71448 -0.0524,-0.0586 -0.24199,0.42779 -0.42127,1.08082 -0.17927,0.65304 -0.862,2.54927 -1.51714,4.21384 -0.65514,1.66458 -1.19117,3.0477 -1.19117,3.0736 0,0.0259 1.43983,0.047 3.19965,0.047 h 3.19965 z"
       id="path1-3" />
  </g>
</svg>
